# xmcd
#
# Track frame offsets:
#	150
#	9185
#	18820
#	29013
#	39486
#	47908
#	58677
#	68771
#	81822
#	92753
#	104988
#	114616
#	126124
#	135726
#	146638
#	155982
#	166769
#	180866
#	191417
#	203191
#	213811
#	223367
#	234650
#	248230
#	256827
#	265555
#	279426
#	288212
#	297660
#	309788
#	321248
#	331778
#	342147
#
# Disc length: 4697 seconds
#
# Revision: 1
# Processed by: cddbd v1.5.2PL0 Copyright (c) Steve Scherf et al.
# Submitted via: audiograbber 1.83.01
#
DISCID=e5125721
DTITLE=Various Artist - Harmony Vinyl Favorites Volume 3
DYEAR=1900
DGENRE=
TTITLE0=Morris Wade - It Was A Night Like This
TTITLE1=Rosettes - You Broke My Heart
TTITLE2=Patty McCoy - Goodbye
TTITLE3=Trilons - Forever
TTITLE4=Twilights - Bohemian
TTITLE5=Blenders - Game of Love
TTITLE6=Pat Carroll - I Only Have Eyes For You
TTITLE7=Crystals - Gypsy Ribbon
TTITLE8=Locos - Oh Yes Indeed I Do
TTITLE9=Del Lourds - Alone
TTITLE10=Classics - To Live My Life
TTITLE11=Philo Perry - Dont Cry Baby
TTITLE12=Bobby Rio - Don Diddly
TTITLE13=Dorells - The Beating Of My Heart
TTITLE14=Dahills - Michelle
TTITLE15=Larry Lee - Little Lana
TTITLE16=New Dynamics - Come Go With Me
TTITLE17=Chuck Wright - If I Promise You
TTITLE18=Fashions - Try My Love
TTITLE19=Dante - Bye Bye Baby
TTITLE20=Bob And Avarones - Please Say You Want Me
TTITLE21=Audry Akins - Down Came The Tears
TTITLE22=Freddy Owens - Bye Bye Bye
TTITLE23=Alpacas - 365
TTITLE24=Claude Robinson - Kisses
TTITLE25=Patti Jo And Teardrops - Whispering Your Love
TTITLE26=Squires - So Many Tears Ago
TTITLE27=Tiffanys - The Pleasure Of Love
TTITLE28=Castanets - I Love Him
TTITLE29=Delma Goggins - Leave Me If You Want To
TTITLE30=Chips - Party People
TTITLE31=Sandy And Sophmores - Walk Away Girl
TTITLE32=Vinnie Monte - It's The End
EXTD=
EXTT0=
EXTT1=
EXTT2=
EXTT3=
EXTT4=
EXTT5=
EXTT6=
EXTT7=
EXTT8=
EXTT9=
EXTT10=
EXTT11=
EXTT12=
EXTT13=
EXTT14=
EXTT15=
EXTT16=
EXTT17=
EXTT18=
EXTT19=
EXTT20=
EXTT21=
EXTT22=
EXTT23=
EXTT24=
EXTT25=
EXTT26=
EXTT27=
EXTT28=
EXTT29=
EXTT30=
EXTT31=
EXTT32=
PLAYORDER=
